<svg width="1383" height="271" viewBox="0 0 1383 271" fill="none" xmlns="http://www.w3.org/2000/svg">
<path d="M530.345 140.486C530.345 132.763 530.345 125.039 530.345 117.343C530.345 117.045 530.345 116.747 530.345 116.449C530.056 110.189 528.53 104.335 524.743 99.2673C520.193 93.1969 512.934 90.3514 506.412 92.2755C501.178 93.8202 497.601 97.5058 494.945 102.221C490.658 109.863 489.159 118.21 489.132 126.936C489.106 139.565 491.289 151.597 498.206 162.302C506.043 174.416 516.958 176.475 528.53 168.318C529.977 167.288 530.424 166.231 530.398 164.497C530.293 156.502 530.345 148.508 530.345 140.486ZM530.345 182.898C526.663 185.445 523.639 187.83 520.351 189.727C506.464 197.803 493.051 196.529 480.348 187.017C466.146 176.394 459.044 161.516 456.651 143.955C454.889 131.083 455.731 118.562 459.965 106.178C468.355 81.7607 501.125 64.6064 527.899 84.4165C528.504 84.8772 529.135 85.2837 530.319 86.0696V74.7147C530.319 67.75 530.398 67.4519 523.902 65.4194C517.958 63.5766 515.959 60.6769 522.113 55.6363C532.502 47.0727 542.549 38.1297 552.727 29.3493C554.173 28.1027 555.857 26.7206 557.487 28.1298C558.566 29.0512 559.276 31.0837 559.276 32.6013C559.381 74.8231 559.434 117.045 559.276 159.24C559.249 168.589 562.327 176.15 569.27 182.112C570.743 183.386 572.163 184.985 571.164 186.8C570.48 188.047 568.639 189.077 567.166 189.375C556.909 191.272 546.599 192.979 536.315 194.713C531.687 195.499 530.319 194.253 530.319 189.348C530.345 187.342 530.345 185.337 530.345 182.898Z" fill="#F2CC4C"/>
<path d="M120.084 128.643C117.112 131.868 114.14 135.12 111.168 138.372C99.2541 151.462 87.3136 164.497 75.4784 177.64C73.4796 179.862 71.5333 180.757 68.7455 179.348C67.0622 178.48 65.1949 177.965 63.4065 177.315C59.3036 175.77 58.9354 175.201 59.251 170.648C60.6186 150.052 62.0125 129.456 63.4065 108.86C63.6695 104.877 65.1423 100.405 63.8536 97.0448C62.5649 93.7386 58.5146 91.5435 55.6478 88.8606C52.6759 86.0693 53.0967 83.5219 56.9102 82.1127C68.614 77.7496 80.3177 73.4407 92.0214 69.1318C95.9665 67.6955 97.5182 68.9963 97.2552 73.3594C95.8613 94.931 94.4411 116.503 93.0208 138.074C92.9682 138.833 92.9682 139.592 92.9156 141.245C94.3096 139.863 95.2301 138.996 96.0717 138.074C109.275 123.576 122.504 109.104 135.628 94.5245C137.732 92.1939 139.704 91.3267 142.597 92.763C144.386 93.6573 146.279 94.3619 148.226 94.8768C151.303 95.6898 152.407 97.5868 152.381 100.839C152.328 119.646 152.434 138.454 152.486 157.234C152.513 162.275 152.565 167.342 152.591 172.952C153.644 172.058 154.301 171.57 154.88 170.974C160.035 165.825 165.347 160.811 170.265 155.418C172.369 153.142 173.974 150.242 175.315 147.397C177.603 142.519 176.525 138.128 172.58 134.443C168.188 130.324 166.005 125.229 166.478 119.023C167.188 110.026 175.131 102.844 183.942 103.305C199.906 104.145 207.796 119.023 200.485 134.172C194.514 146.502 186.072 156.909 176.367 166.069C163.322 178.453 149.567 190.133 135.97 201.976C134.944 202.87 132.814 202.952 131.341 202.654C129.026 202.193 126.896 200.946 124.608 200.269C121.899 199.483 120.873 197.884 120.899 194.957C120.978 177.911 120.873 160.865 120.82 143.819C120.82 138.887 120.794 133.928 120.768 128.996C120.531 128.887 120.321 128.752 120.084 128.643Z" fill="#F2CC4C"/>
<path d="M367.651 99.9441C372.464 95.9062 376.698 92.0309 381.274 88.5892C389.217 82.6272 397.686 77.7492 407.627 76.1503C419.778 74.1991 430.956 80.8657 434.296 93.142C436.006 99.4563 436.821 106.177 437.005 112.735C437.426 128.751 437.242 144.795 437.242 160.811C437.242 168.914 440.293 175.58 445.973 181.054C446.736 181.786 447.762 182.437 448.13 183.331C448.604 184.469 448.972 186.014 448.551 187.043C448.209 187.938 446.71 188.751 445.684 188.832C442.554 189.076 439.425 188.913 436.269 188.913C424.381 188.913 412.493 188.995 400.605 188.832C399.159 188.805 397.16 187.938 396.397 186.8C395.266 185.065 396.476 183.249 398.028 182.03C405.707 176.041 408.022 167.667 408.022 158.263C408.022 144.496 408.048 130.703 407.996 116.936C407.996 115.093 407.811 113.223 407.496 111.407C406.207 104.388 401.078 100.865 393.741 102.22C383.878 104.036 375.856 109.51 368.466 116.123C367.887 116.665 367.624 117.83 367.624 118.724C367.572 132.979 367.493 147.261 367.651 161.515C367.729 169.157 370.36 175.824 376.198 180.892C376.935 181.542 377.881 182.057 378.25 182.897C378.802 184.117 379.486 185.77 379.065 186.8C378.644 187.802 376.987 188.697 375.777 188.859C373.331 189.157 370.833 188.941 368.361 188.941C355.894 188.941 343.454 188.941 331.014 188.968C329.199 188.968 327.463 188.859 326.727 186.881C325.964 184.848 326.964 183.277 328.489 182.03C335.853 175.987 338.51 167.884 338.483 158.534C338.457 145.147 338.404 131.759 338.536 118.372C338.536 116.312 337.878 115.445 336.064 114.876C333.618 114.117 331.251 113.088 328.884 112.085C325.912 110.811 325.412 108.047 327.91 105.906C339.115 96.2314 350.371 86.6109 361.707 77.0988C362.68 76.2858 364.784 75.7709 365.757 76.2858C366.756 76.8278 367.519 78.779 367.545 80.1611C367.729 86.6109 367.651 93.0336 367.651 99.9441Z" fill="#F2CC4C"/>
<path d="M735.781 99.9444C740.568 95.9336 744.802 92.0583 749.378 88.6166C757.321 82.6546 765.79 77.7495 775.731 76.1777C787.908 74.2265 799.112 80.866 802.426 93.1152C804.162 99.5108 804.977 106.34 805.135 113.007C805.556 128.914 805.372 144.849 805.372 160.784C805.372 168.887 808.397 175.553 814.077 181.028C814.84 181.759 815.866 182.41 816.26 183.304C816.734 184.442 817.181 186.041 816.708 187.017C816.26 187.965 814.735 188.724 813.578 188.859C811.237 189.13 808.844 188.941 806.45 188.941C793.905 188.941 781.36 188.995 768.814 188.859C767.341 188.832 765.343 187.992 764.58 186.854C763.449 185.147 764.606 183.304 766.184 182.084C773.864 176.095 776.205 167.749 776.205 158.345C776.205 144.551 776.231 130.784 776.178 117.017C776.178 115.175 775.994 113.305 775.679 111.462C774.39 104.362 769.077 100.839 761.661 102.275C751.929 104.172 743.96 109.565 736.675 116.123C736.096 116.665 735.807 117.83 735.807 118.698C735.755 133.061 735.676 147.424 735.833 161.787C735.939 169.32 738.595 175.879 744.329 180.892C745.196 181.651 746.222 182.355 746.748 183.358C747.274 184.361 747.721 185.933 747.3 186.8C746.827 187.803 745.407 188.67 744.302 188.887C742.461 189.239 740.515 188.995 738.595 188.995C725.471 188.995 712.347 188.968 699.249 189.022C697.461 189.022 695.699 188.941 694.936 186.962C694.147 184.93 695.147 183.358 696.646 182.112C704.089 175.987 706.719 167.803 706.666 158.318C706.614 145.012 706.614 131.733 706.693 118.427C706.719 116.421 706.114 115.473 704.273 114.904C701.827 114.145 699.46 113.115 697.093 112.112C694.121 110.839 693.595 108.074 696.041 105.961C707.245 96.2859 718.501 86.6654 729.837 77.1533C730.836 76.3132 732.888 75.7983 733.887 76.2861C734.887 76.801 735.649 78.7793 735.702 80.1343C735.886 86.5841 735.781 93.0339 735.781 99.9444Z" fill="#F2CC4C"/>
<path d="M279.755 131.299C273.443 133.63 267.499 135.581 261.739 137.966C256.348 140.215 251.43 143.331 247.537 147.966C239.936 157.071 244.171 171.732 255.112 174.171C260.898 175.445 266.447 174.469 271.655 171.705C276.021 169.402 279.361 165.716 279.597 160.648C280.045 151.245 279.755 141.787 279.755 131.299ZM279.071 120.134C279.519 107.749 270.313 93.9281 259.556 91.3807C257.794 90.9742 255.743 91.0284 254.007 91.5162C250.614 92.4918 249.615 94.4159 250.404 97.966C251.666 103.738 252.113 109.375 248.563 114.551C244.092 121.137 235.544 123.521 228.233 120.188C221.552 117.153 217.765 108.833 219.58 101.028C221.684 91.8685 227.654 85.9065 235.439 81.7602C245.302 76.4757 255.98 74.9039 266.947 76.0421C271.813 76.557 276.783 77.3429 281.412 78.9147C296.772 84.0637 304.951 95.6896 307.66 111.597C308.528 116.665 308.738 121.868 308.844 127.044C309.001 138.101 308.923 149.131 308.87 160.188C308.844 168.805 311.921 175.96 318.338 181.542C318.627 181.786 319.048 182.003 319.18 182.328C319.785 183.846 320.889 185.499 320.653 186.908C320.495 187.884 318.549 189.049 317.26 189.293C309.975 190.675 302.663 191.813 295.378 193.06C292.195 193.602 289.013 194.198 285.857 194.74C281.307 195.499 279.913 194.252 279.887 189.537C279.86 187.288 279.86 185.038 279.834 182.789C279.834 182.599 279.755 182.41 279.597 181.786C278.835 182.328 278.204 182.735 277.572 183.223C265.579 192.328 252.271 196.583 237.411 194.09C226.523 192.247 218.738 185.851 215.372 174.903C212.005 163.955 215.003 154.28 222.525 146.069C231.652 136.123 243.224 130.296 255.664 126.313C263.265 123.874 271.076 122.221 279.071 120.134Z" fill="#F2CC4C"/>
<path d="M889.319 131.868C880.745 133.874 872.671 136.53 865.386 141.191C862.361 143.115 859.495 145.5 857.075 148.183C852.735 153.006 852.315 158.833 854.471 164.849C856.549 170.567 860.573 174.117 866.569 174.361C870.278 174.497 874.17 174.199 877.721 173.142C885.874 170.676 889.425 165.391 889.477 156.746C889.503 149.429 889.477 142.112 889.477 134.795C889.451 133.874 889.372 133.034 889.319 131.868ZM889.451 181.218C883.612 186.448 877.721 189.7 871.277 191.841C861.099 195.255 850.815 196.367 840.611 192.166C823.936 185.337 818.334 164.28 829.249 149.511C836.245 140.053 845.845 134.199 856.286 129.619C866.385 125.202 876.905 122.411 887.741 120.785C888.004 120.757 888.267 120.568 888.504 120.486C889.766 108.915 880.009 93.9827 869.278 91.3811C867.358 90.9204 865.097 91.0288 863.177 91.5979C860.126 92.4922 859.468 94.4434 859.836 97.7496C860.257 101.489 861.046 105.446 860.336 108.996C858.469 118.21 849.553 123.359 840.663 121.083C832.089 118.888 827.04 109.999 829.17 100.866C831.3 91.7063 837.218 85.6088 845.108 81.7064C861.283 73.6577 877.984 73.5493 894.527 80.3243C908.019 85.8256 914.726 97.2076 917.224 111.381C918.118 116.449 918.329 121.652 918.408 126.828C918.592 137.885 918.487 148.914 918.434 159.971C918.408 168.697 921.485 175.933 928.007 181.57C928.218 181.76 928.533 181.922 928.639 182.166C929.27 183.684 930.532 185.337 930.269 186.692C930.059 187.776 928.086 188.995 926.745 189.266C920.801 190.486 914.778 191.38 908.782 192.41C904.468 193.142 900.181 193.846 895.868 194.632C890.897 195.526 889.477 194.307 889.451 189.077C889.451 186.8 889.451 184.497 889.451 181.218Z" fill="#F2CC4C"/>
<path d="M1086.79 170.567C1083.31 173.656 1080.63 176.23 1077.74 178.615C1069.61 185.282 1060.99 191.054 1050.75 193.818C1034.11 198.344 1020.27 189.049 1018.98 171.407C1017.75 153.981 1017.67 136.475 1017.25 118.995C1017.19 116.61 1016.7 115.283 1014.35 114.632C1012.28 114.063 1010.25 113.142 1008.23 112.302C1004.44 110.757 1003.99 108.291 1007.1 105.581C1014.8 98.9142 1022.56 92.3018 1030.29 85.6623C1033.42 82.9523 1036.47 80.161 1039.76 77.6407C1041 76.6922 1043.28 75.5811 1044.15 76.1231C1045.31 76.8277 1046.1 79.1041 1046.13 80.7301C1046.23 104.768 1046.18 128.833 1046.23 152.87C1046.23 155.391 1046.34 157.992 1046.97 160.404C1048.7 167.071 1054.3 169.754 1061.96 168.128C1071.29 166.122 1078.79 160.729 1085.87 154.578C1086.44 154.063 1086.76 152.897 1086.76 152.03C1086.81 140.594 1086.76 129.158 1086.84 117.722C1086.84 116.15 1086.26 115.499 1084.92 115.012C1082.31 114.09 1079.74 113.115 1077.19 112.031C1074.19 110.757 1073.74 108.02 1076.24 105.852C1087.36 96.2313 1098.54 86.665 1109.8 77.18C1110.77 76.367 1113.01 75.7437 1113.8 76.3128C1114.93 77.1258 1115.82 79.1041 1115.82 80.5946C1115.93 107.071 1116.03 133.575 1115.85 160.052C1115.77 168.805 1118.74 175.797 1125.18 181.352C1125.92 181.976 1126.63 182.626 1127.21 183.412C1128.97 185.797 1128.13 188.371 1125.26 188.913C1118.74 190.187 1112.19 191.244 1105.64 192.355C1100.88 193.168 1096.12 194.035 1091.31 194.713C1087.68 195.228 1086.81 194.415 1086.81 190.702C1086.73 184.36 1086.79 177.938 1086.79 170.567Z" fill="#F2CC4C"/>
<path d="M1299.61 122.519C1298.79 119.836 1298.16 117.397 1297.29 115.039C1294.32 106.964 1290.85 99.1317 1284.12 93.522C1281.15 91.0288 1277.83 89.6196 1273.86 90.2429C1268.34 91.1101 1265.29 94.9583 1263.16 99.7279C1259.68 107.56 1259.11 115.907 1259.45 124.362C1259.61 128.481 1260.11 132.573 1260.47 137.018C1273.81 132.085 1286.54 127.37 1299.61 122.519ZM1263.21 148.183C1264.16 158.21 1273.57 168.67 1283.91 171.353C1297.61 174.903 1312.1 169.212 1321.28 156.638C1322.12 155.473 1322.99 154.28 1323.73 153.034C1324.94 150.974 1326.44 150.405 1328.75 151.218C1333.69 152.925 1334.22 153.711 1332.35 158.806C1324.75 179.619 1309.84 191.028 1288.75 194.226C1273.6 196.529 1259.84 192.816 1247.98 182.762C1237.96 174.28 1231.99 163.115 1228.81 150.297C1225.52 136.909 1225.57 123.603 1230.46 110.595C1237.36 92.2754 1250.64 81.2999 1268.99 77.1807C1288.06 72.926 1305 77.6143 1318.81 92.2483C1325.41 99.2401 1329.72 107.668 1332.67 116.855C1333.93 120.785 1333.38 121.787 1329.59 123.224C1313.92 129.104 1298.24 134.958 1282.57 140.839C1276.12 143.332 1269.65 145.771 1263.21 148.183Z" fill="#F2CC4C"/>
<path d="M971.666 81.6245C980.53 81.6245 988.893 81.6245 997.257 81.6245C999.203 81.6245 1001.6 81.5161 1001.94 83.8738C1002.31 86.4483 1001.86 89.2125 1001.28 91.7599C1001.12 92.3832 998.992 92.8168 997.756 92.8439C990.05 92.9523 982.344 92.9794 974.638 92.8439C972.245 92.7897 971.587 93.5485 971.614 95.9875C971.824 116.231 971.903 136.448 972.087 156.691C972.087 158.534 972.324 160.404 972.771 162.193C974.664 169.672 981.24 173.412 989.577 171.759C992.181 171.244 994.758 170.567 997.336 169.916C999.203 169.456 1000.54 170.052 1001.28 171.84C1001.89 173.358 1002.73 174.957 1002.78 176.529C1002.81 177.992 1002.33 179.997 1001.36 180.865C990.576 190.377 978.215 195.607 963.802 194.848C955.702 194.415 948.022 187.802 945.392 178.426C944.077 173.683 943.156 168.67 943.104 163.765C942.815 141.272 942.867 118.806 942.92 96.3127C942.92 93.7111 942.394 92.5187 939.659 92.871C937.87 93.0878 936.029 93.0336 934.241 92.8439C933.294 92.7355 932.137 92.3019 931.532 91.5973C929.98 89.7816 930.716 83.4131 932.531 81.8413C943.498 72.3563 954.492 62.8171 965.565 53.4405C966.59 52.5462 968.747 51.8958 969.746 52.4107C970.772 52.9527 971.535 55.0394 971.587 56.4757C971.771 63.6843 971.666 70.9471 971.666 78.1828V81.6245Z" fill="#F2CC4C"/>
<path d="M617.767 94.6874C618.819 93.495 619.819 92.2213 620.95 91.1373C624.816 87.3975 628.445 83.3054 632.732 80.1347C641.701 73.5223 653.299 74.3353 659.769 81.7878C664.714 87.5059 666.186 94.3893 664.082 101.733C662.189 108.265 657.665 112.221 651.195 113.576C644.988 114.877 639.833 112.465 635.336 108.237C634.705 107.641 634.152 106.964 633.547 106.34C628.629 101.219 622.396 101.381 617.767 106.855C617.294 107.424 617.083 108.427 617.083 109.24C617.057 126.909 617.004 144.606 617.11 162.302C617.136 169.89 620.502 175.96 625.841 181.001C627.472 182.519 629.786 183.901 628.708 186.773C627.604 189.727 624.973 188.914 622.791 188.914C608.72 188.941 594.649 188.995 580.578 188.833C579.105 188.833 577.133 187.966 576.344 186.827C575.16 185.093 576.475 183.359 577.896 182.031C582.183 178.074 586.101 173.792 587.074 167.641C587.548 164.578 587.863 161.435 587.89 158.345C587.969 145.039 587.89 131.76 587.995 118.454C587.995 116.313 587.364 115.338 585.391 114.769C583.024 114.064 580.762 113.061 578.474 112.086C575.344 110.758 574.871 107.994 577.475 105.744C588.705 96.0695 599.909 86.4219 611.245 76.8827C612.165 76.0968 614.111 75.6361 615.058 76.0968C616.031 76.5575 616.899 78.3732 616.952 79.6198C617.162 84.4707 617.031 89.3487 617.031 94.1996C617.267 94.4164 617.504 94.5519 617.767 94.6874Z" fill="#F2CC4C"/>
<path d="M1175.95 94.6868C1177 93.4944 1178 92.2207 1179.13 91.1096C1182.99 87.3969 1186.62 83.2777 1190.91 80.1341C1199.91 73.5217 1211.5 74.3347 1217.95 81.8143C1222.89 87.5324 1224.37 94.4158 1222.26 101.76C1220.39 108.291 1215.84 112.248 1209.37 113.603C1203.17 114.903 1198.01 112.492 1193.51 108.264C1192.88 107.668 1192.33 106.99 1191.73 106.367C1186.83 101.245 1180.57 101.435 1175.95 106.882C1175.47 107.451 1175.26 108.454 1175.26 109.267C1175.24 126.963 1175.18 144.632 1175.29 162.328C1175.34 169.916 1178.68 175.987 1184.02 181.027C1185.65 182.545 1187.97 183.927 1186.86 186.8C1185.76 189.727 1183.13 188.941 1180.94 188.941C1166.87 188.968 1152.8 189.022 1138.73 188.859C1137.26 188.832 1135.29 187.992 1134.5 186.854C1133.31 185.12 1134.63 183.385 1136.05 182.057C1140.33 178.101 1144.25 173.819 1145.23 167.667C1145.73 164.605 1146.02 161.461 1146.04 158.345C1146.12 145.066 1146.04 131.76 1146.15 118.481C1146.15 116.34 1145.49 115.364 1143.54 114.795C1141.18 114.09 1138.91 113.088 1136.63 112.112C1133.5 110.784 1133.02 108.02 1135.63 105.771C1146.78 96.1773 1157.93 86.5839 1169.16 77.0989C1170.16 76.2588 1172.21 75.6897 1173.21 76.1775C1174.24 76.6653 1175.05 78.6165 1175.13 79.9715C1175.37 84.7411 1175.21 89.5107 1175.21 94.2803C1175.47 94.4158 1175.71 94.5513 1175.95 94.6868Z" fill="#F2CC4C"/>
<path d="M98.9131 230.078C94.5735 242.382 81.3706 248.723 69.4302 244.224C57.4898 239.753 51.3354 226.149 55.7013 213.845C60.0409 201.542 73.2438 195.2 85.1842 199.699C97.0983 204.171 103.253 217.775 98.9131 230.078Z" fill="#F2CC4C"/>
<path d="M178.917 52.2755C174.577 64.5789 161.375 70.9203 149.434 66.4217C137.494 61.9231 131.339 48.346 135.705 36.0426C140.045 23.7392 153.248 17.3978 165.188 21.8964C177.129 26.395 183.257 39.9992 178.917 52.2755Z" fill="#F2CC4C"/>
</svg>
